HIERARCHY
ROOT Hips
{
	OFFSET -0.001795 -0.223333 0.028219
	CHANNELS 6 Xposition Yposition Zposition Zrotation Yrotation Xrotation 
	JOINT LeftUpLeg
	{
		OFFSET 0.069520 -0.091406 -0.006815
		CHANNELS 3 Zrotation Yrotation Xrotation
		JOINT LeftLeg
		{
			OFFSET 0.034277 -0.375199 -0.004496
			CHANNELS 3 Zrotation Yrotation Xrotation
			JOINT LeftFoot
			{
				OFFSET -0.013596 -0.397961 -0.043693
				CHANNELS 3 Zrotation Yrotation Xrotation
				JOINT LeftToe
				{
					OFFSET 0.026358 -0.055791 0.119288
					CHANNELS 3 Zrotation Yrotation Xrotation
					End Site
					{
						OFFSET 0.000000 0.000000 0.000000
					}
				}
			}
		}
	}
	JOINT RightUpLeg
	{
		OFFSET -0.067670 -0.090522 -0.004320
		CHANNELS 3 Zrotation Yrotation Xrotation
		JOINT RightLeg
		{
			OFFSET -0.038290 -0.382569 -0.008850
			CHANNELS 3 Zrotation Yrotation Xrotation
			JOINT RightFoot
			{
				OFFSET 0.015774 -0.398415 -0.042312
				CHANNELS 3 Zrotation Yrotation Xrotation
				JOINT RightToe
				{
					OFFSET -0.025372 -0.048144 0.123348
					CHANNELS 3 Zrotation Yrotation Xrotation
					End Site
					{
						OFFSET 0.000000 0.000000 0.000000
					}
				}
			}
		}
	}
	JOINT Spine
	{
		OFFSET -0.002533 0.108963 -0.026696
		CHANNELS 3 Zrotation Yrotation Xrotation
		JOINT Spine1
		{
			OFFSET 0.005487 0.135180 0.001092
			CHANNELS 3 Zrotation Yrotation Xrotation
			JOINT Spine2
			{
				OFFSET 0.001457 0.052922 0.025425
				CHANNELS 3 Zrotation Yrotation Xrotation
				JOINT Neck
				{
					OFFSET -0.002778 0.213870 -0.042857
					CHANNELS 3 Zrotation Yrotation Xrotation
					JOINT Head
					{
						OFFSET 0.005152 0.064970 0.051349
						CHANNELS 3 Zrotation Yrotation Xrotation
						End Site
						{
							OFFSET 0.000000 0.000000 0.000000
						}
					}
				}
				JOINT LeftShoulder
				{
					OFFSET 0.078845 0.121749 -0.034090
					CHANNELS 3 Zrotation Yrotation Xrotation
					JOINT LeftArm
					{
						OFFSET 0.090977 0.030469 -0.008868
						CHANNELS 3 Zrotation Yrotation Xrotation
						JOINT LeftForeArm
						{
							OFFSET 0.259612 -0.012772 -0.027456
							CHANNELS 3 Zrotation Yrotation Xrotation
							JOINT LeftHand
							{
								OFFSET 0.249234 0.008986 -0.001171
								CHANNELS 3 Zrotation Yrotation Xrotation
								End Site
								{
									OFFSET 0.000000 0.000000 0.000000
								}
							}
						}
					}
				}
				JOINT RightShoulder
				{
					OFFSET -0.081759 0.118833 -0.038615
					CHANNELS 3 Zrotation Yrotation Xrotation
					JOINT RightArm
					{
						OFFSET -0.096012 0.032551 -0.009143
						CHANNELS 3 Zrotation Yrotation Xrotation
						JOINT RightForeArm
						{
							OFFSET -0.253742 -0.013329 -0.021401
							CHANNELS 3 Zrotation Yrotation Xrotation
							JOINT RightHand
							{
								OFFSET -0.255298 0.007772 -0.005559
								CHANNELS 3 Zrotation Yrotation Xrotation
								End Site
								{
									OFFSET 0.000000 0.000000 0.000000
								}
							}
						}
					}
				}
			}
		}
	}
}
MOTION
Frames: 11
Frame Time: 0.050000
0.016768 0.950744 -0.016157 -1.957992 -0.181024 14.727602 9.558243 -0.528059 -14.337213 -1.742039 0.281599 -5.291165 0.134079 6.395977 18.045759 0.000000 0.000000 0.000000 -7.763176 0.834966 -10.809238 1.207151 -0.292971 -5.820541 -6.897339 -18.249359 24.261114 0.000000 0.000000 0.000000 -3.587207 0.138776 7.062214 9.120112 -2.954840 -9.756209 2.649999 11.795585 22.865929 7.517553 -0.633960 -26.888556 0.000000 0.000000 0.000000 -20.130219 -4.633528 -2.120801 -31.090056 -14.960414 -0.770874 -97.402102 -39.174309 42.939402 0.000000 0.000000 0.000000 -3.029197 13.842434 4.680525 20.681209 8.455734 -1.835573 14.273305 63.768399 13.989390 0.000000 0.000000 0.000000 
0.017285 0.950336 -0.014874 -2.061317 -0.331818 14.578673 9.653558 -0.511569 -13.632643 -1.809092 0.300165 -6.023965 0.203454 6.459736 18.003593 0.000000 0.000000 0.000000 -7.793390 0.826939 -10.529966 1.216609 -0.297387 -5.970820 -6.572781 -17.811776 24.276929 0.000000 0.000000 0.000000 -3.428083 0.135907 5.719994 8.894314 -2.990509 -8.787867 2.939374 12.018255 22.665107 7.645474 -0.766240 -26.317729 0.000000 0.000000 0.000000 -20.729864 -3.937463 -2.675172 -31.699969 -15.031941 -0.702940 -96.770039 -39.055172 42.353017 0.000000 0.000000 0.000000 -1.874062 14.116316 5.025616 20.729539 9.496417 -1.727797 5.492359 63.272295 8.410496 0.000000 0.000000 0.000000 
0.017811 0.949763 -0.013862 -1.966831 -0.198541 14.518394 9.437595 -0.529168 -13.102436 -1.673118 0.308070 -6.789307 0.109727 6.339219 17.982533 0.000000 0.000000 0.000000 -8.139863 0.797049 -10.035804 1.537268 -0.332814 -6.686009 -6.614431 -17.852047 24.658902 0.000000 0.000000 0.000000 -3.320995 0.135469 4.835121 9.311886 -3.182997 -8.472156 3.055304 12.352093 22.671044 7.462993 -0.598595 -26.308412 0.000000 0.000000 0.000000 -21.289868 -3.322020 -3.284097 -32.252916 -15.909980 -0.439982 -96.708996 -40.697810 44.107616 0.000000 0.000000 0.000000 -1.269428 13.912867 5.091073 21.366636 10.701157 -1.616236 -3.440250 65.013736 3.370858 0.000000 0.000000 0.000000 
0.018403 0.949405 -0.013315 -1.851474 -0.148936 14.150575 9.279180 -0.531353 -12.469087 -1.720738 0.317735 -7.168867 0.049244 6.236836 17.883972 0.000000 0.000000 0.000000 -8.423776 0.770956 -9.726569 1.585098 -0.340049 -6.864029 -6.648367 -17.923415 25.604851 0.000000 0.000000 0.000000 -3.181628 0.127735 4.153624 9.454688 -3.285844 -8.105983 3.180769 12.669371 23.068085 7.639661 -0.694331 -25.990865 0.000000 0.000000 0.000000 -21.867083 -3.475121 -3.425397 -32.939165 -16.670844 -0.235230 -96.604888 -42.869343 46.501662 0.000000 0.000000 0.000000 -0.894347 14.187389 5.268234 21.637205 10.841676 -1.622544 -11.961286 67.565126 -1.849760 0.000000 0.000000 0.000000 
0.019076 0.948860 -0.013226 -1.678702 0.059220 14.104319 9.037897 -0.551507 -12.303166 -1.691282 0.321212 -7.463879 -0.067037 6.079403 17.798639 0.000000 0.000000 0.000000 -8.756483 0.752830 -9.605942 1.648436 -0.348433 -7.033744 -6.676543 -17.934018 25.991100 0.000000 0.000000 0.000000 -3.033655 0.112725 4.146847 9.297873 -3.232972 -8.069480 3.401204 12.522783 23.231730 7.290765 -0.473554 -26.211579 0.000000 0.000000 0.000000 -21.932792 -3.402753 -3.463297 -34.085683 -18.022747 0.087007 -96.616055 -45.982365 50.201431 0.000000 0.000000 0.000000 -1.130007 13.766985 5.051567 22.182932 10.641724 -1.661890 -20.227751 71.030850 -7.530663 0.000000 0.000000 0.000000 
0.019847 0.948688 -0.013282 -1.521702 0.435867 14.202422 9.061964 -0.564842 -12.540522 -2.068976 0.332460 -7.409035 -0.251074 5.854523 17.756641 0.000000 0.000000 0.000000 -9.181169 0.740387 -10.053653 1.643695 -0.341647 -6.700563 -6.580649 -17.781573 27.186376 0.000000 0.000000 0.000000 -2.983239 0.109975 3.993627 9.422887 -3.199292 -8.725532 3.512321 12.429822 23.861437 7.116169 -0.406791 -25.884825 0.000000 0.000000 0.000000 -22.054284 -3.375508 -3.529968 -34.854300 -19.222272 0.362130 -96.572499 -48.690723 53.314215 0.000000 0.000000 0.000000 -0.741034 12.693053 4.735317 21.148361 10.297773 -1.734992 -30.529947 74.803712 -15.765864 0.000000 0.000000 0.000000 
0.020528 0.948402 -0.013409 -1.421518 0.811409 14.119424 9.022507 -0.578405 -12.656236 -2.231422 0.333284 -7.220606 -0.420943 5.617453 17.592519 0.000000 0.000000 0.000000 -9.384811 0.723055 -10.206036 1.451364 -0.331540 -6.570154 -6.558712 -17.732626 28.439849 0.000000 0.000000 0.000000 -2.470286 0.057642 4.093925 8.966887 -2.974972 -9.207459 3.413113 12.213689 24.249239 6.530847 -0.073080 -25.944995 0.000000 0.000000 0.000000 -21.605072 -2.982278 -3.621020 -35.638670 -20.314108 0.598320 -96.574778 -51.313045 56.345256 0.000000 0.000000 0.000000 -1.136732 11.805183 4.310612 20.224287 9.296075 -1.830604 -42.201602 77.357372 -25.889566 0.000000 0.000000 0.000000 
0.020981 0.948387 -0.013562 -1.222545 1.274512 14.304247 8.836927 -0.611494 -12.927841 -2.274321 0.332699 -7.307260 -0.674421 5.336975 17.664244 0.000000 0.000000 0.000000 -9.708011 0.705309 -10.464691 1.509362 -0.330468 -6.359690 -6.681269 -17.820738 28.865230 0.000000 0.000000 0.000000 -2.608612 0.070692 4.127487 9.255244 -2.999898 -9.831124 3.023294 12.018917 24.669694 6.684785 -0.159775 -25.865281 0.000000 0.000000 0.000000 -21.427779 -2.741062 -3.741944 -35.973639 -20.989084 0.745415 -97.788104 -53.124702 59.432324 0.000000 0.000000 0.000000 -1.535449 10.791752 3.852856 18.428011 8.765718 -1.816430 -55.946664 77.629225 -37.401854 0.000000 0.000000 0.000000 
0.020929 0.948904 -0.013851 -1.055615 2.169417 14.426121 8.977017 -0.638535 -13.305987 -2.719635 0.341307 -7.266542 -1.159622 4.820018 17.879328 0.000000 0.000000 0.000000 -9.611766 0.688747 -10.763907 1.158623 -0.303970 -5.951908 -7.316604 -18.513286 29.846027 0.000000 0.000000 0.000000 -2.701244 0.078184 4.131880 9.592557 -3.056316 -10.289296 2.599248 11.572258 24.675755 6.797247 -0.230478 -25.756177 0.000000 0.000000 0.000000 -21.152593 -2.197611 -4.004403 -35.879370 -21.632165 0.888981 -99.450030 -53.947612 61.797441 0.000000 0.000000 0.000000 -2.402624 10.128820 3.437644 16.863163 8.095841 -1.770681 -59.736456 76.224456 -39.643066 0.000000 0.000000 0.000000 
0.020320 0.949687 -0.014361 -1.061566 2.862473 14.810070 8.783288 -0.681083 -13.462704 -2.197906 0.327163 -8.050638 -1.600773 4.440784 18.391951 0.000000 0.000000 0.000000 -9.575465 0.682667 -11.117233 1.121716 -0.308255 -6.065275 -7.556071 -18.709660 30.975070 0.000000 0.000000 0.000000 -2.663804 0.078370 4.018214 9.796995 -3.072663 -10.650554 2.242739 11.297262 24.820343 7.325585 -0.563833 -25.441033 0.000000 0.000000 0.000000 -19.797168 -2.372603 -3.613134 -36.451069 -23.432040 1.299373 -101.585408 -55.258196 65.193048 0.000000 0.000000 0.000000 -4.207436 10.265694 3.123495 16.397410 8.431340 -1.669576 -57.410050 72.577809 -35.117454 0.000000 0.000000 0.000000 
0.018994 0.950614 -0.015413 -1.107608 3.041580 15.140853 8.909785 -0.687140 -13.513091 -2.131088 0.333193 -8.786626 -1.787533 4.388436 19.017360 0.000000 0.000000 0.000000 -9.204656 0.709680 -11.421749 0.825360 -0.310182 -6.533538 -8.057549 -19.315061 32.098257 0.000000 0.000000 0.000000 -2.843813 0.095985 4.135398 9.788968 -3.074698 -10.562625 2.008768 10.781131 24.662224 7.473347 -0.755560 -25.167507 0.000000 0.000000 0.000000 -18.696771 -2.737847 -3.043034 -36.463200 -25.027982 1.633183 -104.669884 -56.780958 70.108588 0.000000 0.000000 0.000000 -5.872742 11.655797 3.266910 15.638703 9.810643 -1.454029 -50.138188 66.297586 -26.306307 0.000000 0.000000 0.000000 
